# xmcd
#
# Track frame offsets: 
#        150
#        28609
#        49123
#        70898
#        91290
#        112915
#        136794
#        156312
#        176227
#        202011
#        223626
#        249051
#
# Disc length: 3604 seconds
#
# Revision: 11
# Processed by: cddbd v1.5.2PL0 Copyright (c) Steve Scherf et al.
# Submitted via: ExactAudioCopy v1.0b3
#
DISCID=a30e120c
DTITLE=平井堅 - Ken Hirai 10th Anniversary Complete Single Collection '95
DTITLE='05 歌バカ Disc 2
DYEAR=2005
DGENRE=DOMESTIC(J-POPS)
TTITLE0=Miracles
TTITLE1=KISS OF LIFE
TTITLE2=Missin' you～It will break my heart～
TTITLE3=Strawberry Sex
TTITLE4=大きな古時計
TTITLE5=Ring
TTITLE6=LIFE is...～another story～
TTITLE7=style
TTITLE8=瞳をとじて
TTITLE9=キミはともだち
TTITLE10=思いがかさなるその前に…
TTITLE11=POP STAR
EXTD=YEAR: 2005
EXTT0=
EXTT1=
EXTT2=
EXTT3=
EXTT4=
EXTT5=
EXTT6=
EXTT7=
EXTT8=
EXTT9=
EXTT10=
EXTT11=
PLAYORDER=
